<svg xmlns="http://www.w3.org/2000/svg" xmlns:xlink="http://www.w3.org/1999/xlink" version="1.1" id="Layer_1" x="0px" y="0px" width="2688px" height="501px" viewBox="0 0 2688 501" enable-background="new 0 0 2688 501" xml:space="preserve">
          <path opacity="0.2" fill="#80D2E6" enable-background="new    " d="M0-0.061v424.488c74.991,28.741,152.995,48.486,234.936,60.093  c90.28,12.781,181.633,16.889,272.752,16.52c8.601,0,17.205-0.077,25.811-0.229c8.609,0.153,17.21,0.229,25.811,0.229  c91.119,0.369,182.472-3.741,272.75-16.52c140.932-19.962,270.229-63.941,392.541-136.49  c34.881-20.693,69.221-42.658,103.601-64.652c88.71-56.75,177.7-113.679,277.08-149.368c28.39-10.154,57.46-18.274,87-24.3  c62.3-12.83,122.27-16.1,175-15.19c3.39-0.08,6.79-0.12,10.22-0.12v-94.46H0z"></path>
          <g>
            <path fill="none" d="M2530.65,348.06c-34.886-20.693-69.222-42.658-103.602-64.652c-88.713-56.75-177.701-113.679-277.08-149.368   c-28.387-10.154-57.46-18.274-87-24.3c-62.3-12.83-122.27-16.1-175-15.19c-3.386-0.08-6.792-0.12-10.219-0.12V501.03h810.5v-76.573   C2634.268,403.768,2581.844,378.425,2530.65,348.06z"></path>
            <path opacity="0.2" fill="#80D2E6" enable-background="new    " d="M2062.969,109.739c29.54,6.026,58.613,14.146,87,24.3   c99.379,35.689,188.367,92.618,277.08,149.368c34.38,21.994,68.716,43.959,103.602,64.652   c51.193,30.365,103.617,55.708,157.6,76.397V-0.031h-810.5v94.46c3.427,0,6.833,0.04,10.219,0.12   C1940.699,93.639,2000.669,96.909,2062.969,109.739z"></path>
          </g></svg>