<svg xmlns="http://www.w3.org/2000/svg" xmlns:xlink="http://www.w3.org/1999/xlink" version="1.1" id="Layer_1" x="0px" y="0px" width="2730px" height="403px" viewBox="0 0 2730 403" enable-background="new 0 0 2730 403" xml:space="preserve">
          <path opacity="0.2" fill="#80D2E6" enable-background="new    " d="M0-0.38v395.44c121.56-20.73,238.934-77.131,299.897-106.437  c14.716-7.006,29.431-14.154,44.094-21.373c5.624-2.768,11.161-5.605,16.674-8.432c8.863-4.543,17.667-9.057,26.685-13.203  c26.985-12.736,54.969-23.242,83.669-31.41c23.775-6.686,48.182-10.883,72.825-12.527c8.134-0.484,16.263-0.649,24.386-0.496v0.006  c96.109,1.843,193.919,46.396,290.789,90.521c27.473,12.514,54.869,24.994,82.131,36.453c131.58,55.342,263.16,86.963,394.76,71.145  c131.602-15.818,263.17-79.045,328.99-110.684c14.711-7.006,29.43-14.154,44.09-21.373c5.631-2.768,11.16-5.605,16.68-8.432  c8.861-4.543,17.66-9.057,26.682-13.203c26.988-12.736,54.969-23.242,83.67-31.41c23.779-6.686,48.18-10.883,72.818-12.527  c8.24-0.49,16.471-0.654,24.691-0.49V-0.38H0z"></path>
          <g>
            <path fill="none" d="M2701.285,399.307c-131.602,15.818-263.184-15.803-394.766-71.145c-27.262-11.459-54.658-23.939-82.131-36.453   c-96.869-44.125-194.68-88.678-290.789-90.521v202.193h796.771v-8.321C2720.692,396.71,2710.989,398.141,2701.285,399.307z"></path>
            <path opacity="0.2" fill="#80D2E6" enable-background="new    " d="M2306.52,328.162c131.582,55.342,263.164,86.963,394.766,71.145   c9.704-1.166,19.407-2.597,29.085-4.247V-0.38H1933.6v201.568c96.109,1.843,193.92,46.396,290.789,90.521   C2251.861,304.223,2279.258,316.703,2306.52,328.162z"></path>
          </g></svg>